<?xml version="1.0" encoding="UTF-8" standalone="no"?>
<!DOCTYPE svg PUBLIC "-//W3C//DTD SVG 1.1//EN" "http://www.w3.org/Graphics/SVG/1.1/DTD/svg11.dtd">
<svg width="100%" height="100%" viewBox="0 0 595 595" version="1.1" xmlns="http://www.w3.org/2000/svg" xmlns:xlink="http://www.w3.org/1999/xlink" xml:space="preserve" xmlns:serif="http://www.serif.com/" style="fill-rule:evenodd;clip-rule:evenodd;stroke-linejoin:round;stroke-miterlimit:10;">
    <g transform="matrix(1.28145,0,0,1.28145,-32.3442,-83.8524)">
        <g>
            <path d="M223.4,454.1L231.5,517.2L228.6,444.2L223.4,454.1Z" style="fill:none;fill-rule:nonzero;stroke:black;stroke-width:5px;"/>
            <path d="M228.6,444.2L212.9,429.5L199.3,457.6L228.6,444.2Z" style="fill:none;fill-rule:nonzero;stroke:black;stroke-width:5px;"/>
            <path d="M228.6,444.2L223.4,454.1L199.3,457.6L228.6,444.2Z" style="fill:none;fill-rule:nonzero;stroke:black;stroke-width:5px;"/>
            <path d="M223.4,454.1L220.7,507.5L213.3,455.6L223.4,454.1Z" style="fill:none;fill-rule:nonzero;stroke:black;stroke-width:5px;"/>
            <path d="M199.3,457.6L201.9,486.6L213.3,455.6L199.3,457.6Z" style="fill:none;fill-rule:nonzero;stroke:black;stroke-width:5px;"/>
            <path d="M228.6,444.2L246.4,520.8L242.9,444.2L228.6,444.2Z" style="fill:none;fill-rule:nonzero;stroke:black;stroke-width:5px;"/>
            <path d="M242.9,444.2L258.1,438.5L257.4,519.5L242.9,444.2Z" style="fill:none;fill-rule:nonzero;stroke:black;stroke-width:5px;"/>
            <path d="M242.9,444.2L246.4,520.8L257.4,519.5L242.9,444.2Z" style="fill:none;fill-rule:nonzero;stroke:black;stroke-width:5px;"/>
            <path d="M212.9,429.5L230.1,421.8L228.6,444.2L212.9,429.5Z" style="fill:none;fill-rule:nonzero;stroke:black;stroke-width:5px;"/>
            <path d="M258.1,438.5L230.1,421.8L242.9,444.2L258.1,438.5Z" style="fill:none;fill-rule:nonzero;stroke:black;stroke-width:5px;"/>
            <path d="M230.1,421.8L242.9,444.2L228.6,444.2L230.1,421.8Z" style="fill:none;fill-rule:nonzero;stroke:black;stroke-width:5px;"/>
            <path d="M258.1,438.5C258.7,438.5 275.4,433 275.4,433L291.1,517.2L258.1,438.5Z" style="fill:none;fill-rule:nonzero;stroke:black;stroke-width:5px;"/>
            <path d="M258.1,438.5L272,514.1L291.1,517.2L258.1,438.5Z" style="fill:none;fill-rule:nonzero;stroke:black;stroke-width:5px;"/>
            <path d="M275.4,433L259.6,397.8L258.1,438.5L275.4,433Z" style="fill:none;fill-rule:nonzero;stroke:black;stroke-width:5px;"/>
            <path d="M275.4,433L292.2,489.1L328.7,500.3L275.4,433Z" style="fill:none;fill-rule:nonzero;stroke:black;stroke-width:5px;"/>
            <path d="M275.4,433L289.4,428.9L328.7,500.3L275.4,433Z" style="fill:none;fill-rule:nonzero;stroke:black;stroke-width:5px;"/>
            <path d="M259.6,397.8L230.1,421.8L258.1,438.5L259.6,397.8Z" style="fill:none;fill-rule:nonzero;stroke:black;stroke-width:5px;"/>
            <path d="M289.4,428.9L259.6,397.8L275.4,433L289.4,428.9Z" style="fill:none;fill-rule:nonzero;stroke:black;stroke-width:5px;"/>
            <path d="M289.4,428.9L309.5,419.3L356.2,486.6L289.4,428.9Z" style="fill:none;fill-rule:nonzero;stroke:black;stroke-width:5px;"/>
            <path d="M289.4,428.9C289.4,428.9 335.6,489.1 335.9,489.1C336.2,489.1 356.2,486.7 356.2,486.7L289.4,428.9Z" style="fill:none;fill-rule:nonzero;stroke:black;stroke-width:5px;"/>
            <path d="M259.6,397.8L309.5,419.3L289.4,428.9L259.6,397.8Z" style="fill:none;fill-rule:nonzero;stroke:black;stroke-width:5px;"/>
            <path d="M309.5,418.8L328.7,406.5L362.4,449.1L309.5,418.8Z" style="fill:none;fill-rule:nonzero;stroke:black;stroke-width:5px;"/>
            <path d="M328.7,406.5L275.4,371.3L309.5,418.8L328.7,406.5Z" style="fill:none;fill-rule:nonzero;stroke:black;stroke-width:5px;"/>
            <path d="M259.6,397.8L275.4,371.3L309.5,419.3L259.6,397.8Z" style="fill:none;fill-rule:nonzero;stroke:black;stroke-width:5px;"/>
            <path d="M212.9,429.5L204.6,344.1L259.6,397.8L212.9,429.5Z" style="fill:none;fill-rule:nonzero;stroke:black;stroke-width:5px;"/>
            <path d="M230.1,421.8L212.9,429.5L259.6,397.8L230.1,421.8Z" style="fill:none;fill-rule:nonzero;stroke:black;stroke-width:5px;"/>
            <path d="M275.4,371.3L271.9,300.5L307.3,355.2L275.4,371.3Z" style="fill:none;fill-rule:nonzero;stroke:black;stroke-width:5px;"/>
            <path d="M289.6,380.7L307.3,355.2L275.4,371.3L289.6,380.7Z" style="fill:none;fill-rule:nonzero;stroke:black;stroke-width:5px;"/>
            <path d="M271.9,300.5L313.1,278.8L307.3,355.2L271.9,300.5Z" style="fill:none;fill-rule:nonzero;stroke:black;stroke-width:5px;"/>
            <path d="M307.3,355.2L328.2,312.8L313.1,278.8L307.3,355.2Z" style="fill:none;fill-rule:nonzero;stroke:black;stroke-width:5px;"/>
            <path d="M271.9,300.5L259.6,397.8L275.4,371.3L271.9,300.5Z" style="fill:none;fill-rule:nonzero;stroke:black;stroke-width:5px;"/>
            <path d="M204.6,344.1L271.9,300.5L259.6,397.8L204.6,344.1Z" style="fill:none;fill-rule:nonzero;stroke:black;stroke-width:5px;"/>
            <path d="M313.1,278.8L364.9,231.3L328.2,312.8L313.1,278.8Z" style="fill:none;fill-rule:nonzero;stroke:black;stroke-width:5px;"/>
            <path d="M313.1,278.8L298.6,214.8L364.9,231.3L313.1,278.8Z" style="fill:none;fill-rule:nonzero;stroke:black;stroke-width:5px;"/>
            <path d="M357.7,215.6L336.7,200.8L298.6,214.8L357.7,215.6Z" style="fill:none;fill-rule:nonzero;stroke:black;stroke-width:5px;"/>
            <path d="M338.3,224.7L357.7,215.6L298.6,214.8L338.3,224.7Z" style="fill:none;fill-rule:nonzero;stroke:black;stroke-width:5px;"/>
            <path d="M328.2,312.8C328.2,312.8 377.1,237.2 376.6,237.1C376.1,237 365,231.3 365,231.3L328.2,312.8Z" style="fill:none;fill-rule:nonzero;stroke:black;stroke-width:5px;"/>
            <path d="M376.5,237.1L377.5,215.6L364.9,231.3L376.5,237.1Z" style="fill:none;fill-rule:nonzero;stroke:black;stroke-width:5px;"/>
            <path d="M377.5,215.6L467.5,227.9L377.1,224.7L377.5,215.6Z" style="fill:none;fill-rule:nonzero;stroke:black;stroke-width:5px;"/>
            <path d="M376.5,237.1L408.6,225.8L377.1,224.7L376.5,237.1Z" style="fill:none;fill-rule:nonzero;stroke:black;stroke-width:5px;"/>
            <path d="M298.6,214.8L257.4,249.7L313.1,278.8L298.6,214.8" style="fill:none;fill-rule:nonzero;stroke:black;stroke-width:5px;"/>
            <path d="M257.4,249.7L251.2,313.9L313.1,278.8L257.4,249.7Z" style="fill:none;fill-rule:nonzero;stroke:black;stroke-width:5px;"/>
            <path d="M257.4,249.7L195.4,186.7L254.8,276.1L257.4,249.7Z" style="fill:none;fill-rule:nonzero;stroke:black;stroke-width:5px;"/>
            <path d="M228.8,293.5L243.1,272.1" style="fill:none;fill-rule:nonzero;stroke:black;stroke-width:5px;"/>
            <path d="M254.8,276.1L208.9,250.8L238.7,251.8L254.8,276.1Z" style="fill:none;fill-rule:nonzero;stroke:black;stroke-width:5px;"/>
            <path d="M238.7,251.8L195.4,186.7L208.9,250.8L238.7,251.8Z" style="fill:none;fill-rule:nonzero;stroke:black;stroke-width:5px;"/>
            <path d="M240.9,268.4L226.9,292.4L254.8,276.1L240.9,268.4Z" style="fill:none;fill-rule:nonzero;stroke:black;stroke-width:5px;"/>
            <path d="M214.3,280.4L231.9,263.4L240.9,268.4L214.3,280.4Z" style="fill:none;fill-rule:nonzero;stroke:black;stroke-width:5px;"/>
            <path d="M208.9,250.8C208.9,250.8 201.4,271.9 201.3,272.1C201.2,272.2 231.9,263.5 231.9,263.5L208.9,250.8Z" style="fill:none;fill-rule:nonzero;stroke:black;stroke-width:5px;"/>
            <path d="M208.9,250.8L182.5,250.3L205,261.9L208.9,250.8Z" style="fill:none;fill-rule:nonzero;stroke:black;stroke-width:5px;"/>
            <path d="M251.2,313.9L254.8,276.1L204.6,344.1L251.2,313.9Z" style="fill:none;fill-rule:nonzero;stroke:black;stroke-width:5px;"/>
            <path d="M204.6,344.1L214.3,280.4L226.9,292.4L204.6,344.1Z" style="fill:none;fill-rule:nonzero;stroke:black;stroke-width:5px;"/>
            <path d="M226.9,292.4L240.9,268.4L214.3,280.4L226.9,292.4Z" style="fill:none;fill-rule:nonzero;stroke:black;stroke-width:5px;"/>
            <path d="M226.9,292.4L254.8,276.1L204.6,344.1L226.9,292.4Z" style="fill:none;fill-rule:nonzero;stroke:black;stroke-width:5px;"/>
            <path d="M214.3,280.4L201.3,272.1L231.9,263.4L214.3,280.4Z" style="fill:none;fill-rule:nonzero;stroke:black;stroke-width:5px;"/>
            <path d="M201.3,272.1L119.7,293.5L182.5,250.3L201.3,272.1Z" style="fill:none;fill-rule:nonzero;stroke:black;stroke-width:5px;"/>
            <path d="M201.3,272.1L205,261.9L182.5,250.3L201.3,272.1Z" style="fill:none;fill-rule:nonzero;stroke:black;stroke-width:5px;"/>
            <path d="M205.7,343.9L119.2,293.3L202.3,271.9L205.7,343.9Z" style="fill:none;fill-rule:nonzero;stroke:black;stroke-width:5px;"/>
            <path d="M204.6,344.1L214.3,280.4L201.3,272.1L204.6,344.1Z" style="fill:none;fill-rule:nonzero;stroke:black;stroke-width:5px;"/>
            <path d="M182.5,250.3C182.5,250.3 93.3,221.2 93.3,221.7C93.3,222.2 119.6,293.5 119.6,293.5L182.5,250.3Z" style="fill:none;fill-rule:nonzero;stroke:black;stroke-width:5px;"/>
            <path d="M206.5,239.5C206.5,239.5 175.5,231.8 175.9,231.5C176.3,231.1 202.8,221.8 202.8,221.8L206.5,239.5Z" style="fill:none;fill-rule:nonzero;stroke:black;stroke-width:5px;"/>
            <path d="M195.4,186.7L178,165.5L172.7,186.4L195.4,186.7Z" style="fill:none;fill-rule:nonzero;stroke:black;stroke-width:5px;"/>
            <path d="M200.9,212.9L172.7,198.8L175.9,231.4L200.9,212.9Z" style="fill:none;fill-rule:nonzero;stroke:black;stroke-width:5px;"/>
            <path d="M175.9,231.4L200.9,212.9L202.8,221.7L175.9,231.4Z" style="fill:none;fill-rule:nonzero;stroke:black;stroke-width:5px;"/>
            <path d="M200.9,212.9L195.4,186.7L172.7,186.4L200.9,212.9Z" style="fill:none;fill-rule:nonzero;stroke:black;stroke-width:5px;"/>
            <path d="M172.7,186.4L172.7,198.8L200.9,212.9L172.7,186.4Z" style="fill:none;fill-rule:nonzero;stroke:black;stroke-width:5px;"/>
            <path d="M178,165.5C178,165.5 46.7,73.2 47.3,74.4C48,75.6 172.7,186.3 172.7,186.3L178,165.5Z" style="fill:none;fill-rule:nonzero;stroke:black;stroke-width:5px;"/>
            <path d="M178,165.5L139.5,101.8L47.3,74.4L178,165.5Z" style="fill:none;fill-rule:nonzero;stroke:black;stroke-width:5px;"/>
            <path d="M172.7,186.4L47.3,74.4L62.9,129.3L172.7,186.4Z" style="fill:none;fill-rule:nonzero;stroke:black;stroke-width:5px;"/>
            <path d="M172.7,186.4L88.4,205.2L62.9,129.3L172.7,186.4Z" style="fill:none;fill-rule:nonzero;stroke:black;stroke-width:5px;"/>
            <path d="M175.9,231.4L182.5,250.3L206.5,239.5L175.9,231.4Z" style="fill:none;fill-rule:nonzero;stroke:black;stroke-width:5px;"/>
            <path d="M182.5,250.3L208.9,250.8L206.5,239.5L182.5,250.3Z" style="fill:none;fill-rule:nonzero;stroke:black;stroke-width:5px;"/>
            <path d="M182.5,250.3L93.4,221.7L172.7,186.4L182.5,250.3Z" style="fill:none;fill-rule:nonzero;stroke:black;stroke-width:5px;"/>
            <path d="M93.4,221.7L88.4,205.2L172.7,186.4L93.4,221.7Z" style="fill:none;fill-rule:nonzero;stroke:black;stroke-width:5px;"/>
            <path d="M357.7,215.6L377.5,215.6L336.7,200.8L357.7,215.6Z" style="fill:none;fill-rule:nonzero;stroke:black;stroke-width:5px;"/>
            <path d="M348.9,222.8L357.7,215.6L352.8,228.3L348.9,222.8Z" style="fill:none;fill-rule:nonzero;stroke:black;stroke-width:5px;"/>
            <path d="M357.7,215.6L364.9,231.3L352.8,228.3L357.7,215.6Z" style="fill:none;fill-rule:nonzero;stroke:black;stroke-width:5px;"/>
            <path d="M348.9,222.8L338.3,224.7L352.8,228.3L348.9,222.8Z" style="fill:none;fill-rule:nonzero;stroke:black;stroke-width:5px;"/>
            <path d="M348.9,222.8L357.7,215.6L338.3,224.7L348.9,222.8Z" style="fill:none;fill-rule:nonzero;stroke:black;stroke-width:5px;"/>
            <path d="M364.9,231.3L365.6,221.8L357.7,215.6L364.9,231.3Z" style="fill:none;fill-rule:nonzero;stroke:black;stroke-width:5px;"/>
            <path d="M365.6,221.8L377.5,215.6L357.7,215.6L365.6,221.8Z" style="fill:none;fill-rule:nonzero;stroke:black;stroke-width:5px;"/>
            <path d="M364.9,231.3L377.5,215.6L365.6,221.8L364.9,231.3Z" style="fill:none;fill-rule:nonzero;stroke:black;stroke-width:5px;"/>
        </g>
    </g>
</svg>
